<svg width="532" height="531" viewBox="0 0 532 531" fill="none" xmlns="http://www.w3.org/2000/svg">
<g filter="url(#filter0_d_10_677)">
<path d="M246 19C177 23.6 113 56.5 69.6 109.5C39.7 145.9 21.9 186.3 14.9 233.1C12.3 251.3 12 281.5 14.5 299.5C24.8 376.2 67.9 442 133.8 481.9C188.2 514.8 254.1 525.4 317 511.4C409.6 490.8 484.8 415.6 505.4 323C509.6 303.9 511.2 289.2 511.2 268C511.2 239.1 507.4 215.3 498.9 189.6C474 115 415 56 340.4 31.1C311.1 21.4 276.4 16.9 246 19ZM297.5 39.4C321.2 43.2 341.6 49.8 364.5 61C426.4 91.2 471.8 148.7 487.4 216.5C494.2 245.9 494.7 282.9 488.9 312.5C473.6 389.7 420.4 453.8 347.3 482.9C262.4 516.7 164.1 496.7 99.7 432.4C81.3 414.2 67.6 395.5 56.7 374.3C38 337.7 29.9 301.4 31.3 260C32.5 225 39.4 197.4 55 165.5C89.3 95.2 158.7 46.7 237 38.1C249.4 36.7 285.6 37.5 297.5 39.4Z" fill="#2F2F37"/>
<path d="M234.2 64.5C232.4 65.3 226.6 70 221.5 75C209.7 86.4 205.3 88.6 191 89.9C171 91.8 155.8 99.7 140.2 116.4C130.4 126.9 129.5 129.2 129.5 144V156.5L124.7 166.6C120.9 174.7 120 177.6 120 182.1C120 192.7 128 201.8 140.4 205.5C151.1 208.7 158.8 206.6 165.1 198.8C166.8 196.6 168.6 195.2 169 195.7C170.1 196.7 182 223 182 224.1C182 224.6 181.4 225 180.7 225C178.5 225 173.2 231.3 171.5 235.9C168.1 245.5 170.7 260.5 176.8 266.3C179.8 269.2 183.9 271 187.6 271C189.4 271 190 271.6 190.1 273.2C190.3 277.8 189.8 279.6 187.3 282.2C185 284.6 184.8 285.5 185.3 289.4C185.9 293.4 185.6 294.4 182.5 298.7C168 319.1 160.7 332.9 153.9 353C151.6 359.9 149.3 366.1 148.7 366.7C148.2 367.4 146.7 368 145.4 368C144.1 368 142.7 368.8 142.2 369.7C141.7 370.7 141 377.3 140.6 384.3C140 395.4 140.1 397.5 141.6 399.7C142.6 401.4 143 403.4 142.7 405.5C142.2 408.4 142.4 408.6 144.5 408.3C145.7 408 148.6 408.8 150.8 409.9C157.5 413.3 167.2 415.1 174.4 414.4L180.8 413.7L182.5 418.9C186.5 431.1 179.6 432.9 172.6 421.6L170.7 418.7L169.4 421.1C168.7 422.4 168.1 425.4 168 427.8C168 432.7 166.7 435.7 163.6 438.2L161.5 439.9L163.8 439.3C167.4 438.4 169 435.1 169 428.8C169 425.7 169.4 422.8 170 422.5C170.5 422.2 172 423.5 173.2 425.4C176.3 430.2 179.5 431.5 182.6 429.5C185.4 427.7 185.7 423.7 183.5 418.3C181.6 413.9 181.6 410.9 183.4 408.5C184.7 406.6 185.3 406.7 201.1 411.4C210.1 414.1 218.1 416.8 218.8 417.5C219.9 418.5 219.8 421.7 218.1 436.5C215.8 456.2 215.6 458.9 216.9 460.9C218.1 462.8 236 466.9 246.5 467.6C257.3 468.3 262.8 466.8 264.9 462.5C266.1 460.1 266 459.5 264.3 457.1C261.5 453.4 256.4 450.2 250.5 448.4C241.2 445.8 241.3 446.1 243.4 432.4C244.4 425.8 245.3 420.4 245.4 420.3C245.9 419.8 277.6 423.2 278.2 423.9C278.7 424.3 278.5 433 277.9 443.3C277 457.9 277 462.3 277.9 463.4C278.6 464.2 283.4 465.9 288.7 467.1C303.4 470.5 322.4 468.9 325 464C326.6 461.1 326.2 456.5 324.2 454.7C322 452.7 313 449.5 306.9 448.5C298.7 447.3 299.2 448.4 300.7 435.7C301.5 429.6 302.4 424.2 302.8 423.8C303.2 423.5 308.3 422.7 314.2 422.1C326.6 420.7 334.3 418.7 337.1 415.9C338.6 414.4 339 412.6 339 407.2C339.2 393.2 340.8 347.9 341.2 347.4C341.5 347.2 344.6 348.3 348.1 349.8C362.3 356.2 364.7 355.6 385.6 341.2C392.8 336.3 393.6 336 397.6 336.6C403.8 337.5 405.5 336 413.4 323.1C420.1 312.2 420.9 310 419.6 306.9C419.1 305.8 419.9 304.5 422.2 302.8C432.4 295 440.8 283.6 444 273.1C446.8 264.3 446.9 252.5 444.4 247.3C442 242.4 439.7 242 436 246L433 249.2L432 246.3C430.4 241.7 428.6 238.8 426.7 237.6C423.8 235.7 419.8 238.8 417.4 244.8C416.3 247.7 415.1 250.2 414.8 250.6C414.5 250.9 412.5 250 410.5 248.5C406.1 245.6 401.1 245.3 396.9 247.7C394.2 249.3 392.9 251.3 390.1 258.7C389.3 260.6 387.7 262.3 385.9 263C384.3 263.7 381.8 265.6 380.4 267.3C378 270.2 377.8 270.8 378.5 277.5C379.3 286.3 378.6 288.3 371 297.8C364.6 305.7 364.1 307 366.5 309C368.8 310.9 368.3 312.6 364.3 315.9C359.7 319.7 354.8 320 349.9 316.7C345.8 313.9 345.2 311 347.9 306.6C350.9 301.9 350.5 299.6 346.4 296.2L342.8 293.2L343.5 281.8C343.9 275.6 344.6 269.7 345.1 268.8C345.7 267.8 347.9 266.1 350.2 264.9L354.4 262.8L349.9 260.6L345.5 258.5L345 246C344.7 238.3 344 232.7 343.2 231.5C342.1 229.8 342 230.3 342.4 235.5C344.1 255.9 344.2 257 342.9 257C342.3 257 337.4 255.7 332.1 254C324.3 251.6 312.1 249.1 307.6 249C307.2 249 308.2 247.3 310 245.3C314 240.8 316 236.2 316 231.6C316 226.3 314.1 223.2 309.3 220.9C305.2 218.9 305 218.6 305 214.4C305 210.9 304.5 209.7 302.6 208.5C301.3 207.7 299.6 207.2 298.7 207.6C296.7 208.3 294.6 214.4 295.3 217.2C295.7 218.4 295.4 220.2 294.9 221.2C294 222.9 294.2 223 296.7 222.3C298.2 221.9 301.7 221.5 304.3 221.5C310.7 221.5 314 224.9 314 231.6C314 239.8 309.5 246.2 301 249.8C296.2 251.9 283.6 251.8 271.6 249.6C256.4 246.7 247.6 247.7 228.7 254C220.4 256.9 212.8 259.6 212 260C208.8 261.8 225.1 267.5 240.9 270C245 270.7 252.9 272.9 258.4 274.8C267.4 278 269.5 278.4 278.5 278.4C287.8 278.4 289.1 278.2 297.4 274.6C306.2 270.9 306.5 270.8 315.1 271.5C320.5 271.9 327.3 271.7 332.9 271C337.9 270.3 342.3 270 342.6 270.3C343.8 271.4 341 292.3 339.4 294.1C337.7 296 324.8 301.1 315.5 303.5C293 309.4 257.2 307.1 229.7 298C217.4 293.9 194.5 282.7 193.1 280.2C192.5 279 192 275.4 192 272C192 266.3 191.9 266 190.1 267C181.4 271.6 172.8 261.7 172.9 246.9C172.9 239.3 175.8 230.9 179.4 228.5C181.9 226.7 187.1 226.6 189.2 228.2C190.1 228.9 193.8 234.5 197.4 240.7C201 246.8 204.4 252.1 204.9 252.4C206.5 253.4 207.7 247.8 209.9 230.4C212.6 209 214 204.5 219.1 198.7C224.1 193 236 184.9 243.6 182C251.5 179.1 270 177.5 279.4 178.9C297.8 181.6 313.8 192.3 319.7 205.9C325.1 218.3 326.6 220.1 334.5 222.9C337.3 223.9 337.4 223.9 335.6 222.5C334.5 221.7 333.1 221 332.4 221C329.2 221 325 215.6 322 207.7C320.2 203.2 310.5 183.1 300.4 163.1C280.1 123.1 280 122.7 284.5 114.2C288.2 107.1 289.4 100 288 94C285.6 84.1 276.6 73.3 266.4 68.2C257.1 63.5 240.8 61.6 234.2 64.5ZM256.8 67.5C269.1 70.4 277.8 77 283 87.3C287.3 95.9 287.2 102.2 282.5 111.9C280.6 115.9 279 120.3 279 121.6C279 123 286.3 138.4 295.2 156C304 173.6 311.1 188.3 310.8 188.6C310.5 188.9 305.8 186.9 300.4 184.2C288.1 178 280 176 268 176C257.1 176 248.4 177.9 238.3 182.5C222.2 189.9 212.5 198.8 201.6 216.1C197.7 222.3 194 227.5 193.4 227.7C190.3 228.7 186.3 222.8 176.6 203C169 187.3 166.7 181.6 166.7 178.6L166.8 174.6L165.3 177.5C163.9 180 163.9 180.7 165.4 183.7C167.7 188.6 167.4 191.1 163.9 195.9C158.6 203.3 149.2 205.8 138.7 202.6C132 200.6 128.1 197.3 125.4 191.6C121.6 183.4 122.5 177.2 129.7 160.7C133.3 152.6 133.3 152.5 132.1 145C131.3 139.5 131.3 136.5 132.1 133.5C135.8 120.4 157.3 101 174.8 95.1C178 94 185.3 92.6 191 92.1C196.7 91.5 203.2 90.5 205.4 89.9C211.2 88.3 217.3 83.8 222.4 77.1C230.5 66.6 240.8 63.7 256.8 67.5ZM428 241.4C429.8 243.6 430.4 256.8 429.1 264.5C427.5 273.4 428.3 273.8 430.4 265.3C433.1 254.5 437.4 246.1 440.2 246C444.1 245.9 446.1 259.1 443.5 269C439.1 285.9 425.8 302.5 414.9 304.7L411.8 305.3L414.9 306.6C418.5 308.1 418.8 309.9 416.4 315.6C414.1 321.1 407.3 330.7 404.4 332.7C402 334.2 401.6 334.2 398.2 332.6C387 327.2 368 311.3 368 307.2C368 304.8 380.1 288.9 381.3 289.7C382 290 383.9 291.3 385.5 292.4L388.5 294.4L385.4 290.8C381.2 286.1 379.7 281 380.2 274.4C380.8 267.7 383 265 388 265C392.8 265 394 266.4 394 272.1C394 277.5 396.1 280.7 401.7 284C405.3 286.1 405.4 286.1 403.7 284.2C401.9 282.2 401.9 282 405.4 276.8C411.6 267.7 409.3 262.4 399 261.8L393.5 261.5L393.2 257.9C392.6 250.6 401.1 244.9 407.6 248.3C411.2 250.1 413.2 252.4 415.9 257.5L418 261.5V254.8C418 251.1 418.5 246.9 419 245.3C420.9 240.4 425.4 238.4 428 241.4ZM288 263.5C290.8 264.9 293 266.4 293 266.9C293 267.8 271.1 269.5 270.3 268.7C270 268.3 281.7 261.1 282.8 261C282.9 261 285.3 262.1 288 263.5ZM404.8 265.6C407.5 267.5 407.6 270.5 405 274.7C402.8 278.4 400.6 278.8 397.8 276.3C395.7 274.4 395.3 267.1 397.2 265.2C398.9 263.5 402.1 263.7 404.8 265.6ZM197.8 301.2C203.9 307.8 209.5 311.5 217.7 314.6C226.1 317.8 253.6 325 257.3 325C260.6 325 260.7 325.9 257.5 330.6C252.4 338 251.9 345.3 255.9 351.3L257.8 354.2L263 345.3C270.5 332.8 272.4 331.6 275.8 337.4C276.9 339.3 280.5 342.6 283.9 344.9L289.9 349L290.6 345.5C291 343 290.5 339.6 288.8 334.1L286.3 326.2L294.9 325.5C299.6 325.2 305.1 324.7 307 324.4L310.5 323.9L310.4 340.7L310.3 357.5L310.9 341.2C311.3 329.4 311.9 324.7 312.8 324.1C313.5 323.7 319.5 322.1 326.2 320.5C336.1 318.3 338.4 318 339.1 319.1C339.6 319.9 340 323.9 340.1 328C340.3 335.5 340.3 335.5 341.4 324.2L342.5 312.9L348.5 317.1C351.9 319.5 355.7 321.3 357.1 321.3C358.6 321.3 361.7 319.9 364.1 318.2C366.5 316.4 369 315 369.7 315C371.1 315 388 329.2 389.3 331.5C390.6 333.8 388.6 336.3 380.8 342.3C366.9 352.9 361.2 353.9 349.1 347.8C344.1 345.3 342.1 343.7 340.9 341.1C339.4 337.9 339.3 338.8 338.6 362.1C337.3 403.8 336.7 412.8 334.7 414.7C333 416.4 319.8 418.8 311.3 418.9C307.1 419 307 418.9 306.8 415.7L306.7 412.5L306.3 415.7L305.9 419H283.9C244.7 419 205.5 413.1 189.2 404.6C185.2 402.6 185.2 401.2 189 393.1C191.1 388.7 191.7 386.3 191 385.6C190.3 384.9 190 385.3 190 386.8C190 390.2 180.3 408.8 177.9 410.1C176.5 410.8 172.5 411.1 167.1 410.8C157.7 410.3 151 407.7 145.8 402.5C141.9 398.6 141.3 395 142.1 382.7C143 370.9 143.2 370 146 370C147.6 370 147.9 370.7 147.7 373.9C147.5 378.7 149.6 381.2 156.2 384.6C169 391.1 186 391.9 186 386C186 384.6 186.5 384.2 187.6 384.7C189.1 385.2 189.1 385 187.5 382.7C185.9 380.2 185.9 379.2 188 363.4C189.1 354.2 189.9 346.6 189.7 346.3C188.9 345.6 187.1 357.4 185.9 370.5C184.2 389.2 184.7 388.4 174.7 387.7C162.3 386.8 149 381.3 149 376.9C149 374 162.5 335.9 166 328.9C173.5 314.1 189.3 293.8 192.1 295.5C192.6 295.9 195.2 298.4 197.8 301.2Z" fill="#2F2F37"/>
<path d="M422.5 276C423.4 277.5 427 279.2 427 278.2C427 277.7 425.8 276.8 424.4 276.2C423 275.5 422.1 275.4 422.5 276Z" fill="#2F2F37"/>
<path d="M391 295.5C391 296.2 405.1 303.2 405.6 302.8C405.8 302.6 402.6 300.7 398.5 298.7C394.4 296.7 391 295.2 391 295.5Z" fill="#2F2F37"/>
<path d="M295 338.5C293.6 340.2 294.4 344.5 296.2 345.3C298.7 346.2 302 344.1 302 341.7C302 337.4 297.6 335.4 295 338.5Z" fill="#2F2F37"/>
<path d="M309.2 371C309.1 377.9 308.8 388 308.5 393.5L308.1 403.5L309.1 395C309.6 390.3 309.9 380.2 309.7 372.5L309.4 358.5L309.2 371Z" fill="#2F2F37"/>
<path d="M295.1 369.2C293.9 372.3 295.5 375.2 298.2 374.8C301.1 374.4 302.8 371.5 301.4 369.2C299.7 366.5 296.1 366.5 295.1 369.2Z" fill="#2F2F37"/>
<path d="M297.2 395.7C295 396.5 293.8 399.8 295 402C297 405.7 302 403.8 302 399.3C302 397 299.4 395 297.2 395.7Z" fill="#2F2F37"/>
<path d="M307.3 408C307.3 410.5 307.5 411.5 307.7 410.2C307.9 409 307.9 407 307.7 405.7C307.5 404.5 307.3 405.5 307.3 408Z" fill="#2F2F37"/>
<path d="M252.9 182.4C244.9 185.2 239.8 190.9 238.5 198.5L237.7 202.5L240.6 199.8C244.1 196.5 249 194.4 255.3 193.5L260 192.8V188.1C260 184 258.7 180.9 257.1 181C256.7 181.1 254.9 181.7 252.9 182.4Z" fill="#2F2F37"/>
<path d="M286.7 185.7C285.2 187.1 286 192.9 287.8 193.9C289.7 194.9 305 199 306.9 199C309 199 305.8 194.2 301.6 191.2C294 185.8 288.6 183.8 286.7 185.7Z" fill="#2F2F37"/>
<path d="M246.8 212.1C245.4 212.9 245 214.4 245 219C245 222.7 244.6 225 243.8 225.3C243.1 225.6 243.7 225.9 245.2 225.9C246.7 226 249 226.4 250.4 227C252.8 227.9 252.9 227.8 253.6 222.2C254.6 213.9 251.5 209.3 246.8 212.1Z" fill="#2F2F37"/>
<path d="M276 292L273.5 292.8H276C277.4 292.8 279.9 292.4 281.5 292L284.5 291.2H281.5C279.9 291.2 277.4 291.6 276 292Z" fill="#2F2F37"/>
<path d="M141.1 418.5C141 420.3 144.8 427.2 149.5 433.7C150.5 435.2 152.1 436 153.9 436C155.5 436 157.3 436.7 158 437.5C158.7 438.3 159.7 439 160.2 439C160.8 439 160.3 438.2 159.2 437.2C158 436.3 156.7 433.5 156.2 431C155.6 428.1 155.2 427.4 155.1 429C154.9 432.8 153.8 433.9 151.3 432.9C149.7 432.3 148.7 430.7 147.9 427.5C147.2 424.9 146.4 423.3 146 424C145.1 425.4 143.2 423.2 142 419.3C141.4 417.2 141.2 417 141.1 418.5Z" fill="#2F2F37"/>
</g>
<g filter="url(#filter1_d_10_677)">
<path d="M247.8 18.6999C249.5 18.8999 252.5 18.8999 254.3 18.6999C256 18.4999 254.6 18.2999 251 18.2999C247.4 18.2999 246 18.4999 247.8 18.6999Z" fill="#2D2D39"/>
<path d="M271.8 18.6999C273.6 18.8999 276.3 18.8999 277.8 18.6999C279.3 18.4999 277.8 18.2999 274.5 18.2999C271.2 18.2999 270 18.4999 271.8 18.6999Z" fill="#2D2D39"/>
<path d="M247.8 37.7C249.6 37.9 252.3 37.9 253.8 37.7C255.3 37.5 253.8 37.3 250.5 37.3C247.2 37.3 246 37.5 247.8 37.7Z" fill="#2D2D39"/>
<path d="M272.3 37.7C273.8 37.9 276.2 37.9 277.8 37.7C279.3 37.5 278 37.3 275 37.3C272 37.3 270.7 37.5 272.3 37.7Z" fill="#2D2D39"/>
<path d="M220.5 75.2L212.5 83.5L220.8 75.5C228.4 68.1 229.5 67 228.7 67C228.6 67 224.9 70.7 220.5 75.2Z" fill="#2D2D39"/>
<path d="M275.5 78C277.6 80.2 279.6 82 279.9 82C280.2 82 278.6 80.2 276.5 78C274.4 75.8 272.4 74 272.1 74C271.8 74 273.4 75.8 275.5 78Z" fill="#2D2D39"/>
<path d="M99.4 78.2L96.5 81.5L99.8 78.6C101.5 76.9 103 75.5 103 75.3C103 74.5 102.2 75.2 99.4 78.2Z" fill="#2D2D39"/>
<path d="M421 75.3C421 75.5 422.5 76.9 424.3 78.6L427.5 81.5L424.6 78.2C421.8 75.2 421 74.5 421 75.3Z" fill="#2D2D39"/>
<path d="M85 91.7L75.5 101.5L85.3 92C90.6 86.8 95 82.4 95 82.3C95 81.5 93.8 82.7 85 91.7Z" fill="#2D2D39"/>
<path d="M438 91.5C443.2 96.7 447.7 101 448 101C448.2 101 444.2 96.7 439 91.5C433.8 86.3 429.3 82 429 82C428.8 82 432.8 86.3 438 91.5Z" fill="#2D2D39"/>
<path d="M189.8 89.7C191 89.9 193 89.9 194.3 89.7C195.5 89.5 194.5 89.3 192 89.3C189.5 89.3 188.5 89.5 189.8 89.7Z" fill="#2D2D39"/>
<path d="M412 92.3C412 92.5 413.5 93.9 415.3 95.6L418.5 98.5L415.6 95.2C412.8 92.2 412 91.5 412 92.3Z" fill="#2D2D39"/>
<path d="M449 103.3C449 103.5 450.5 104.9 452.3 106.6L455.5 109.5L452.6 106.2C449.8 103.2 449 102.5 449 103.3Z" fill="#2D2D39"/>
<path d="M142 113.7L135.5 120.5L142.3 114C148.5 108 149.5 107 148.7 107C148.6 107 145.5 110 142 113.7Z" fill="#2D2D39"/>
<path d="M145 114.7L138.5 121.5L145.3 115C151.5 109 152.5 108 151.7 108C151.6 108 148.5 111 145 114.7Z" fill="#2D2D39"/>
<path d="M87.9 115.7L84.5 119.5L88.3 116.1C91.7 112.8 92.5 112 91.7 112C91.5 112 89.8 113.7 87.9 115.7Z" fill="#2D2D39"/>
<path d="M432 112.3C432 112.5 433.5 113.9 435.3 115.6L438.5 118.5L435.6 115.2C432.8 112.2 432 111.5 432 112.3Z" fill="#2D2D39"/>
<path d="M283.5 116.1C282.6 117.8 282 119.4 282.2 119.6C282.5 119.8 283.4 118.4 284.3 116.5C286.4 112.2 285.6 111.8 283.5 116.1Z" fill="#2D2D39"/>
<path d="M288 139C289.1 141.2 290.3 143 290.5 143C290.8 143 290.1 141.2 289 139C287.9 136.8 286.7 135 286.5 135C286.2 135 286.9 136.8 288 139Z" fill="#2D2D39"/>
<path d="M129.3 151C129.3 153.5 129.5 154.5 129.7 153.2C129.9 152 129.9 150 129.7 148.7C129.5 147.5 129.3 148.5 129.3 151Z" fill="#2D2D39"/>
<path d="M126.2 161.5C124.5 165.2 124.8 166 126.6 162.7C127.5 161.1 128 159.6 127.7 159.4C127.5 159.2 126.8 160.1 126.2 161.5Z" fill="#2D2D39"/>
<path d="M169.4 168.8C169.8 169.5 169.6 170 169 170C168.4 170 168.1 170.4 168.4 170.9C168.8 171.4 168.4 172.1 167.8 172.3C166.8 172.7 166.8 172.9 167.7 172.9C169.5 173 171.3 169.3 169.8 168.4C169.1 168 169 168.1 169.4 168.8Z" fill="#2D2D39"/>
<path d="M304.5 176C305.4 177.6 306.3 179 306.6 179C306.8 179 306.4 177.6 305.5 176C304.6 174.3 303.7 173 303.4 173C303.2 173 303.6 174.3 304.5 176Z" fill="#2D2D39"/>
<path d="M165 176.1C164.3 177.2 164.1 178.4 164.3 178.7C164.6 178.9 165.1 178.2 165.5 177.1C165.8 175.9 166.6 175.2 167.1 175.5C167.6 175.9 168 175.6 168 175.1C168 173.3 166.1 173.9 165 176.1Z" fill="#2D2D39"/>
<path d="M264.8 175.7C267.1 175.9 270.7 175.9 272.8 175.7C274.8 175.5 272.9 175.3 268.5 175.3C264.1 175.3 262.4 175.5 264.8 175.7Z" fill="#2D2D39"/>
<path d="M119.3 181.5C119.3 184.2 119.5 185.3 119.7 183.7C119.9 182.2 119.9 180 119.7 178.7C119.5 177.5 119.3 178.7 119.3 181.5Z" fill="#2D2D39"/>
<path d="M123.3 182.5C123.3 185.2 123.5 186.3 123.7 184.7C123.9 183.2 123.9 181 123.7 179.7C123.5 178.5 123.3 179.7 123.3 182.5Z" fill="#2D2D39"/>
<path d="M267.8 178.7C269.5 178.9 272.5 178.9 274.3 178.7C276 178.5 274.6 178.3 271 178.3C267.4 178.3 266 178.5 267.8 178.7Z" fill="#2D2D39"/>
<path d="M312.7 187.5C315.3 192.7 317.6 196.8 317.8 196.6C318.2 196.1 309.2 178 308.5 178C308.2 178 310.1 182.3 312.7 187.5Z" fill="#2D2D39"/>
<path d="M260.2 188.2C260 192.5 259.8 192.9 257.3 193.3L254.5 193.7L257.3 193.9C260.5 194 261.3 192.6 260.7 187.4C260.4 183.6 260.3 183.7 260.2 188.2Z" fill="#2D2D39"/>
<path d="M296.1 184.4C297.1 185.3 303 188 303 187.6C303 187 297.5 184 296.4 184C296 184 295.9 184.2 296.1 184.4Z" fill="#2D2D39"/>
<path d="M166.2 189C166.2 190.9 166.4 191.7 166.7 190.7C166.9 189.8 166.9 188.2 166.7 187.2C166.4 186.3 166.2 187.1 166.2 189Z" fill="#2D2D39"/>
<path d="M217.4 195.2L214.5 198.5L217.8 195.6C220.8 192.8 221.5 192 220.7 192C220.5 192 219.1 193.5 217.4 195.2Z" fill="#2D2D39"/>
<path d="M220.5 197.2L216.5 201.5L220.8 197.5C224.7 193.9 225.5 193 224.7 193C224.5 193 222.6 194.9 220.5 197.2Z" fill="#2D2D39"/>
<path d="M165.9 197.7L163.5 200.5L166.1 198.2C167.5 197 169 196.3 169.5 196.7C169.9 197.2 170 196.9 169.6 196.2C168.7 194.6 168.7 194.6 165.9 197.7Z" fill="#2D2D39"/>
<path d="M174.1 197.5C174.1 198 175.6 201.4 177.5 205C179.4 208.6 180.9 211 180.9 210.5C180.9 209.9 179.4 206.6 177.5 203C175.6 199.4 174.1 196.9 174.1 197.5Z" fill="#2D2D39"/>
<path d="M144.8 203.7C146.6 203.9 149.3 203.9 150.8 203.7C152.3 203.5 150.8 203.3 147.5 203.3C144.2 203.3 143 203.5 144.8 203.7Z" fill="#2D2D39"/>
<path d="M147.8 207.7C149 207.9 150.8 207.9 151.8 207.7C152.7 207.4 151.7 207.2 149.5 207.3C147.3 207.3 146.5 207.5 147.8 207.7Z" fill="#2D2D39"/>
<path d="M244.3 220C244.3 223 244.5 224.3 244.7 222.7C244.9 221.2 244.9 218.8 244.7 217.2C244.5 215.7 244.3 217 244.3 220Z" fill="#2D2D39"/>
<path d="M323.6 216.1C323.9 216.6 324.5 216.8 325 216.5C325.9 215.9 327.4 217.8 327.5 219.5C327.5 220 328.4 220.4 329.4 220.2C330.5 220 330.9 220.3 330.5 220.9C330.1 221.6 330.5 221.7 331.6 221.3C333.1 220.8 333 220.6 331.4 219.7C330.3 219.2 328.7 218 327.7 217.2C325.7 215.4 322.7 214.7 323.6 216.1Z" fill="#2D2D39"/>
<path d="M185.8 221.5C186.4 222.6 187.9 224.4 189.2 225.5C191.4 227.4 191.4 227.4 189 224.5C185 219.7 184.7 219.4 185.8 221.5Z" fill="#2D2D39"/>
<path d="M301.8 221.7C303 221.9 304.8 221.9 305.8 221.7C306.7 221.4 305.7 221.2 303.5 221.3C301.3 221.3 300.5 221.5 301.8 221.7Z" fill="#2D2D39"/>
<path d="M335.4 223.2C335 223.9 335 224.2 335.4 223.9C336.5 222.9 341.6 228.3 341.1 229.9C340.8 230.7 341.1 231.1 341.7 230.7C342.3 230.3 343.1 230.6 343.3 231.2C343.7 232.1 343.9 232.1 343.9 231.3C344 230.7 342.2 228.3 340.1 226.1C337.3 223.2 335.9 222.3 335.4 223.2Z" fill="#2D2D39"/>
<path d="M175.4 228.2L172.5 231.5L175.8 228.6C178.8 225.8 179.5 225 178.7 225C178.5 225 177.1 226.5 175.4 228.2Z" fill="#2D2D39"/>
<path d="M182.8 227.7C184 227.9 185.8 227.9 186.8 227.7C187.7 227.4 186.7 227.2 184.5 227.3C182.3 227.3 181.5 227.5 182.8 227.7Z" fill="#2D2D39"/>
<path d="M342.2 239C342.2 240.9 342.4 241.7 342.7 240.7C342.9 239.8 342.9 238.2 342.7 237.2C342.4 236.3 342.2 237.1 342.2 239Z" fill="#2D2D39"/>
<path d="M345.2 247.6C345 256.2 345.3 258 346.8 259.1C348.3 260.3 348.4 260.3 347.3 258.9C346.6 258 345.9 253.2 345.7 247.4L345.4 237.5L345.2 247.6Z" fill="#2D2D39"/>
<path d="M309.1 243.3C305.7 247.4 305.7 247.5 308.7 244.7C310.4 243.1 312 242 312.3 242.2C312.6 242.3 313.2 242.1 313.7 241.6C314.2 241 313.9 241 313.1 241.5C312 242.1 311.8 241.9 312.3 240.7C313.2 238.3 312.9 238.5 309.1 243.3Z" fill="#2D2D39"/>
<path d="M169.3 246.5C169.3 249.2 169.5 250.3 169.7 248.7C169.9 247.2 169.9 245 169.7 243.7C169.5 242.5 169.3 243.7 169.3 246.5Z" fill="#2D2D39"/>
<path d="M401.3 245.7C402.2 245.9 403.8 245.9 404.8 245.7C405.7 245.4 404.9 245.2 403 245.2C401.1 245.2 400.3 245.4 401.3 245.7Z" fill="#2D2D39"/>
<path d="M255.3 247.7C256.8 247.9 259.2 247.9 260.8 247.7C262.3 247.5 261 247.3 258 247.3C255 247.3 253.7 247.5 255.3 247.7Z" fill="#2D2D39"/>
<path d="M429.3 254.5C429.3 258.9 429.5 260.6 429.7 258.2C429.9 255.9 429.9 252.3 429.7 250.2C429.5 248.2 429.3 250.1 429.3 254.5Z" fill="#2D2D39"/>
<path d="M343.3 253.5C343.3 255.7 343.5 256.5 343.7 255.2C343.9 254 343.9 252.2 343.7 251.2C343.4 250.3 343.2 251.3 343.3 253.5Z" fill="#2D2D39"/>
<path d="M12.3 257C12.3 260.6 12.5 262 12.7 260.2C12.9 258.5 12.9 255.5 12.7 253.7C12.5 252 12.3 253.4 12.3 257Z" fill="#2D2D39"/>
<path d="M31.3 256.5C31.3 259.8 31.5 261 31.7 259.2C31.9 257.4 31.9 254.7 31.7 253.2C31.5 251.7 31.3 253.2 31.3 256.5Z" fill="#2D2D39"/>
<path d="M286.8 251.7C288 251.9 290 251.9 291.3 251.7C292.5 251.5 291.5 251.3 289 251.3C286.5 251.3 285.5 251.5 286.8 251.7Z" fill="#2D2D39"/>
<path d="M492.3 256.5C492.3 259.8 492.5 261 492.7 259.2C492.9 257.4 492.9 254.7 492.7 253.2C492.5 251.7 492.3 253.2 492.3 256.5Z" fill="#2D2D39"/>
<path d="M511.3 257C511.3 260.6 511.5 262 511.7 260.2C511.9 258.5 511.9 255.5 511.7 253.7C511.5 252 511.3 253.4 511.3 257Z" fill="#2D2D39"/>
<path d="M417.9 258.5C417.3 262.5 417.5 263.8 418.6 262.8C418.9 262.5 419 260.5 418.8 258.4L418.5 254.5L417.9 258.5Z" fill="#2D2D39"/>
<path d="M444.3 260.5C444.3 263.2 444.5 264.3 444.7 262.7C444.9 261.2 444.9 259 444.7 257.7C444.5 256.5 444.3 257.7 444.3 260.5Z" fill="#2D2D39"/>
<path d="M446.3 261.5C446.3 263.7 446.5 264.5 446.7 263.2C446.9 262 446.9 260.2 446.7 259.2C446.4 258.3 446.2 259.3 446.3 261.5Z" fill="#2D2D39"/>
<path d="M381.5 265.1C379.6 266.8 378 268.7 378 269.3C378 269.9 378.7 269.4 379.6 268.1C380.5 266.9 382.6 265 384.4 263.9C386.1 262.9 387 262 386.3 262C385.6 262 383.5 263.4 381.5 265.1Z" fill="#2D2D39"/>
<path d="M291.4 265.8C291.7 266.4 291.2 267.1 290.3 267.3C288.9 267.7 289 267.8 290.8 267.9C293.1 268 293.8 266.6 291.8 265.4C291.2 265 291 265.1 291.4 265.8Z" fill="#2D2D39"/>
<path d="M391.3 266.1C392.4 266.8 393.1 268.5 393.2 271.3L393.3 275.5L393.7 271.7C394.1 267.9 392.8 265 390.6 265C390 265 390.3 265.5 391.3 266.1Z" fill="#2D2D39"/>
<path d="M418.1 268.8C418.4 273.4 422.1 278.3 423.5 275.9C424 275.2 423.9 274.9 423.4 275.2C421.8 276 419.5 272.6 419.2 269C418.7 263.9 417.8 263.8 418.1 268.8Z" fill="#2D2D39"/>
<path d="M192.3 272.5C192.3 276.3 192.5 277.8 192.7 275.7C192.9 273.7 192.9 270.5 192.7 268.7C192.5 267 192.3 268.6 192.3 272.5Z" fill="#2D2D39"/>
<path d="M270.4 268.2C270.1 268.6 272.3 269 275.2 268.9C280.9 268.8 280.7 268.4 274.7 267.8C272.6 267.6 270.7 267.8 270.4 268.2Z" fill="#2D2D39"/>
<path d="M342.2 274C342.2 275.9 342.4 276.7 342.7 275.7C342.9 274.8 342.9 273.2 342.7 272.2C342.4 271.3 342.2 272.1 342.2 274Z" fill="#2D2D39"/>
<path d="M12.3 279C12.3 282.6 12.5 284 12.7 282.2C12.9 280.5 12.9 277.5 12.7 275.7C12.5 274 12.3 275.4 12.3 279Z" fill="#2D2D39"/>
<path d="M511.3 279C511.3 282.6 511.5 284 511.7 282.2C511.9 280.5 511.9 277.5 511.7 275.7C511.5 274 511.3 275.4 511.3 279Z" fill="#2D2D39"/>
<path d="M31.3 279.5C31.3 282.8 31.5 284 31.7 282.2C31.9 280.4 31.9 277.7 31.7 276.2C31.5 274.7 31.3 276.2 31.3 279.5Z" fill="#2D2D39"/>
<path d="M492.3 279.5C492.3 282.8 492.5 284 492.7 282.2C492.9 280.4 492.9 277.7 492.7 276.2C492.5 274.7 492.3 276.2 492.3 279.5Z" fill="#2D2D39"/>
<path d="M403.4 276.1C403.1 276.7 401.7 277 400.4 276.7C399.1 276.5 398.3 276.7 398.6 277.1C399.4 278.5 402.6 278.1 404 276.5C404.7 275.7 405 275 404.7 275C404.4 275 403.8 275.5 403.4 276.1Z" fill="#2D2D39"/>
<path d="M378.3 282C378.3 284.5 378.5 285.5 378.7 284.2C378.9 283 378.9 281 378.7 279.7C378.5 278.5 378.3 279.5 378.3 282Z" fill="#2D2D39"/>
<path d="M193.5 281C194.2 282.1 200 285.3 200 284.6C200 284.4 198.4 283.3 196.4 282.1C194.5 280.9 193.2 280.5 193.5 281Z" fill="#2D2D39"/>
<path d="M343.2 285C343.2 286.9 343.4 287.7 343.7 286.7C343.9 285.8 343.9 284.2 343.7 283.2C343.4 282.3 343.2 283.1 343.2 285Z" fill="#2D2D39"/>
<path d="M438 286C437.4 287.1 436.5 287.8 436.1 287.5C435.6 287.3 434.6 287.8 433.9 288.7C432.7 290.2 432.7 290.3 434 289.5C434.8 288.9 435.9 288.5 436.4 288.5C436.9 288.5 437.9 287.5 438.8 286.2C439.6 285 440 284 439.7 284C439.3 284 438.6 284.9 438 286Z" fill="#2D2D39"/>
<path d="M406.7 288.5C407.7 289.8 408.9 291 409.4 291C409.9 291 409.3 289.9 408 288.5C405 285.3 404.4 285.3 406.7 288.5Z" fill="#2D2D39"/>
<path d="M434.5 291C434.1 291.6 433.5 291.8 433.1 291.6C432.7 291.3 430.4 293.1 428 295.5C425.6 298 424 300 424.4 300C424.9 300 424.6 300.8 423.9 301.7C423.2 302.7 424 302.2 425.8 300.6C427.5 299 428.7 297.4 428.5 297C427.9 296.1 430.5 293.8 431.2 294.5C431.4 294.8 432.7 293.9 434 292.5C435.3 291.1 436.1 290 435.7 290C435.4 290 434.8 290.5 434.5 291Z" fill="#2D2D39"/>
<path d="M271.5 292C270.8 293.1 272.4 293.1 276 292C278.4 291.2 278.4 291.2 275.3 291.1C273.6 291 271.8 291.4 271.5 292Z" fill="#2D2D39"/>
<path d="M385.6 293.1C385.9 293.6 386.6 293.8 387.1 293.5C387.6 293.1 388 293.3 388 293.9C388 295.6 391.8 297.2 392.6 295.8C393 295.1 392.9 295 392.2 295.4C391.5 295.8 391 295.6 391 295C391 294.4 390.6 294.1 390.1 294.4C389.6 294.8 389 294.5 388.8 293.8C388.6 293.2 387.6 292.6 386.7 292.4C385.8 292.3 385.2 292.6 385.6 293.1Z" fill="#2D2D39"/>
<path d="M185.5 300.2L181.5 304.5L185.8 300.5C189.7 296.9 190.5 296 189.7 296C189.5 296 187.6 297.9 185.5 300.2Z" fill="#2D2D39"/>
<path d="M199 303.2C203.1 307.7 204 308.5 204 307.7C204 307.5 201.9 305.4 199.3 303L194.5 298.5L199 303.2Z" fill="#2D2D39"/>
<path d="M405.4 303.2C404.9 304 405.2 304.1 406.3 303.7C407.3 303.4 408 303.5 408 304.1C408 304.7 408.5 304.8 409.1 304.4C409.9 304 409.8 303.5 408.9 302.9C407 301.7 406.2 301.8 405.4 303.2Z" fill="#2D2D39"/>
<path d="M420 304.4C419.1 305.5 419.1 306.3 420 307.7C421.1 309.4 421.1 309.4 420.6 307.6C420.2 306.6 420.5 305.1 421.1 304.4C421.7 303.6 422 303 421.7 303C421.5 303 420.7 303.7 420 304.4Z" fill="#2D2D39"/>
<path d="M368.7 304.7C367.4 305.9 368 308.7 369.8 310.1C371.3 311.4 371.4 311.3 370.1 309.8C369.4 308.8 369 307.1 369.3 306C369.8 303.9 369.7 303.6 368.7 304.7Z" fill="#2D2D39"/>
<path d="M411 304.9C411 305.3 412.1 305.5 413.5 305.2C414.9 305 416 304.6 416 304.4C416 304.2 414.9 304 413.5 304C412.1 304 411 304.4 411 304.9Z" fill="#2D2D39"/>
<path d="M280.3 306.7C283.5 306.9 288.4 306.9 291.3 306.7C294.2 306.5 291.6 306.4 285.5 306.4C279.5 306.4 277.1 306.5 280.3 306.7Z" fill="#2D2D39"/>
<path d="M346.6 314C347.1 314.8 347.5 315.8 347.5 316.2C347.5 316.7 347.9 317 348.3 317.1C350.1 317.3 349.9 316.2 347.8 314.4C346.5 313.3 346 313.1 346.6 314Z" fill="#2D2D39"/>
<path d="M414.6 317.7C413.8 320.2 413.9 321 414.7 320.7C415.2 320.6 415.3 319.9 415.2 319.1C415 318.4 415.3 318.1 415.9 318.5C416.6 318.8 416.7 318.5 416.4 317.6C415.6 315.6 415.3 315.6 414.6 317.7Z" fill="#2D2D39"/>
<path d="M339 328.6C339 333.5 339.4 338.2 339.9 338.9C340.5 339.8 340.6 336.6 340.3 330.4C340 325 339.6 320.3 339.4 320.1C339.2 319.9 339 323.7 339 328.6Z" fill="#2D2D39"/>
<path d="M378 321.3C378 321.5 379.5 322.9 381.3 324.6L384.5 327.5L381.6 324.2C378.8 321.2 378 320.5 378 321.3Z" fill="#2D2D39"/>
<path d="M308.8 325C310.6 325.8 311 326.8 311.1 330.2C311.3 333.4 311.4 333.8 311.7 331.6C312.4 326.9 311.3 324 308.7 324.1H306.5L308.8 325Z" fill="#2D2D39"/>
<path d="M341.2 327C341.2 328.9 341.4 329.7 341.7 328.7C341.9 327.8 341.9 326.2 341.7 325.2C341.4 324.3 341.2 325.1 341.2 327Z" fill="#2D2D39"/>
<path d="M295.8 325.7C297 325.9 298.8 325.9 299.8 325.7C300.7 325.4 299.7 325.2 297.5 325.3C295.3 325.3 294.5 325.5 295.8 325.7Z" fill="#2D2D39"/>
<path d="M405.8 330.9L403.5 333.5L406.4 331C408.6 329.1 409.2 328.9 408.7 330.2C407.9 332.6 408.7 332.5 409.9 330.2C411.4 327.3 408.5 327.8 405.8 330.9Z" fill="#2D2D39"/>
<path d="M309.3 346.5C309.3 352 309.6 361.7 310 368L310.7 379.5V369.5C310.7 364 310.4 354.3 310 348L309.3 336.5V346.5Z" fill="#2D2D39"/>
<path d="M189 344.4C189 345.2 189.5 346.2 190 346.5C190.6 346.8 191 346.2 191 345.1C191 343.9 190.6 343 190 343C189.5 343 189 343.6 189 344.4Z" fill="#2D2D39"/>
<path d="M359.8 351.7C361 351.9 362.8 351.9 363.8 351.7C364.7 351.4 363.7 351.2 361.5 351.3C359.3 351.3 358.5 351.5 359.8 351.7Z" fill="#2D2D39"/>
<path d="M338.3 361.5C338.3 365.3 338.5 366.8 338.7 364.7C338.9 362.7 338.9 359.5 338.7 357.7C338.5 356 338.3 357.6 338.3 361.5Z" fill="#2D2D39"/>
<path d="M340.4 364.5C340.4 369.4 340.5 371.6 340.7 369.3C340.9 367 340.9 362.9 340.7 360.3C340.5 357.7 340.4 359.5 340.4 364.5Z" fill="#2D2D39"/>
<path d="M185.2 371C185.2 372.9 185.4 373.7 185.7 372.7C185.9 371.8 185.9 370.2 185.7 369.2C185.4 368.3 185.2 369.1 185.2 371Z" fill="#2D2D39"/>
<path d="M186.2 378C186.2 379.9 186.4 380.7 186.7 379.7C186.9 378.8 186.9 377.2 186.7 376.2C186.4 375.3 186.2 376.1 186.2 378Z" fill="#2D2D39"/>
<path d="M142.3 380.5C142.3 382.7 142.5 383.5 142.7 382.2C142.9 381 142.9 379.2 142.7 378.2C142.4 377.3 142.2 378.3 142.3 380.5Z" fill="#2D2D39"/>
<path d="M140.3 382.5C140.3 385.2 140.5 386.3 140.7 384.7C140.9 383.2 140.9 381 140.7 379.7C140.5 378.5 140.3 379.7 140.3 382.5Z" fill="#2D2D39"/>
<path d="M148.6 378.8C148.3 379.3 148.9 380.5 149.9 381.5C151.6 383 151.8 383 151.6 381.6C151.3 379.4 149.4 377.6 148.6 378.8Z" fill="#2D2D39"/>
<path d="M308.3 384.5C308.3 387.8 308.5 389 308.7 387.2C308.9 385.4 308.9 382.7 308.7 381.2C308.5 379.7 308.3 381.2 308.3 384.5Z" fill="#2D2D39"/>
<path d="M337.3 385C337.3 388.6 337.5 390 337.7 388.2C337.9 386.5 337.9 383.5 337.7 381.7C337.5 380 337.3 381.4 337.3 385Z" fill="#2D2D39"/>
<path d="M188.1 383.8C188.7 384.8 189.9 385.7 190.6 385.7C192.5 385.7 192.4 385.5 189.5 383.6C187 382 187 382 188.1 383.8Z" fill="#2D2D39"/>
<path d="M177 387L170.5 387.7L176.7 387.8C180.1 387.9 183.2 387.5 183.5 387C183.8 386.4 184 386.1 183.8 386.2C183.6 386.3 180.6 386.6 177 387Z" fill="#2D2D39"/>
<path d="M309.2 395C309.2 396.9 309.4 397.7 309.7 396.7C309.9 395.8 309.9 394.2 309.7 393.2C309.4 392.3 309.2 393.1 309.2 395Z" fill="#2D2D39"/>
<path d="M339.4 402C339.4 407.8 339.5 410.1 339.7 407.2C339.9 404.4 339.9 399.6 339.7 396.7C339.5 393.9 339.4 396.2 339.4 402Z" fill="#2D2D39"/>
<path d="M302.1 399.5C302.1 400.7 301.6 402.1 301 402.8C300.5 403.5 300.7 403.4 301.6 402.6C302.5 401.9 303 400.4 302.7 399.4C302.3 397.7 302.2 397.7 302.1 399.5Z" fill="#2D2D39"/>
<path d="M307.2 400.5C307.2 402.1 307.5 404.4 308 405.5L308.9 407.5L308.8 405.5C308.8 404.4 308.4 402.1 308 400.5L307.2 397.5V400.5Z" fill="#2D2D39"/>
<path d="M336.3 406.5C336.3 409.2 336.5 410.3 336.7 408.7C336.9 407.2 336.9 405 336.7 403.7C336.5 402.5 336.3 403.7 336.3 406.5Z" fill="#2D2D39"/>
<path d="M306.1 410.5C306.1 411.6 306.5 413.4 307 414.5L307.9 416.5V414.5C307.9 413.4 307.5 411.6 307 410.5L306.1 408.5V410.5Z" fill="#2D2D39"/>
<path d="M181.9 413.2C181.6 415.4 181.8 416.6 182.3 416.1C182.8 415.6 183 414 182.8 412.4C182.5 409.7 182.4 409.8 181.9 413.2Z" fill="#2D2D39"/>
<path d="M140.1 416C140.1 419.7 140.3 420.1 141 418.2C141.6 416.9 141.6 415.1 141 413.7C140.3 411.9 140.1 412.3 140.1 416Z" fill="#2D2D39"/>
<path d="M88 420.5C89.9 422.4 91.6 424 91.9 424C92.2 424 90.9 422.4 89 420.5C87.1 418.6 85.4 417 85.1 417C84.8 417 86.1 418.6 88 420.5Z" fill="#2D2D39"/>
<path d="M219.2 421C219.2 422.9 219.4 423.7 219.7 422.7C219.9 421.8 219.9 420.2 219.7 419.2C219.4 418.3 219.2 419.1 219.2 421Z" fill="#2D2D39"/>
<path d="M260.3 418.7C261.8 418.9 264 418.9 265.3 418.7C266.5 418.5 265.3 418.3 262.5 418.3C259.8 418.3 258.7 418.5 260.3 418.7Z" fill="#2D2D39"/>
<path d="M434.4 421.2L431.5 424.5L434.8 421.6C437.8 418.8 438.5 418 437.7 418C437.5 418 436.1 419.5 434.4 421.2Z" fill="#2D2D39"/>
<path d="M141.4 421.1C141.1 421.7 141.3 422.7 141.9 423.3C142.5 423.9 143 424 143 423.6C143 423.1 143.8 423.4 144.8 424.1C146.3 425.4 146.4 425.3 145.1 423.8C144.4 422.8 143.3 422.3 142.7 422.7C142.1 423.1 141.9 422.7 142.3 421.7C143 419.8 142.5 419.4 141.4 421.1Z" fill="#2D2D39"/>
<path d="M168.7 420.7C168.4 421.2 168.6 423.5 169 426L169.7 430.5L169.9 426.6C170 423.1 170.2 422.9 171.8 424.1C173.3 425.4 173.4 425.3 172.1 423.8C171.4 422.8 170.3 422.3 169.7 422.7C169.1 423.1 168.9 422.7 169.3 421.7C169.9 420 169.5 419.3 168.7 420.7Z" fill="#2D2D39"/>
<path d="M256.3 421.7C257.2 421.9 258.8 421.9 259.8 421.7C260.7 421.4 259.9 421.2 258 421.2C256.1 421.2 255.3 421.4 256.3 421.7Z" fill="#2D2D39"/>
<path d="M311.3 422.7C312.2 422.9 313.8 422.9 314.8 422.7C315.7 422.4 314.9 422.2 313 422.2C311.1 422.2 310.3 422.4 311.3 422.7Z" fill="#2D2D39"/>
<path d="M154.1 427.7C154.2 432 154.3 432.2 155 429.5C156.1 425.1 156.1 423 155 423C154.5 423 154.1 425.1 154.1 427.7Z" fill="#2D2D39"/>
<path d="M276.7 423.7C277.3 424.1 278 426.3 278.3 428.5C278.7 432.5 278.7 432.5 278.6 428.1C278.5 425.1 278 423.5 277 423.3C276 423 275.9 423.1 276.7 423.7Z" fill="#2D2D39"/>
<path d="M167.3 428.5C167.3 431.2 167.5 432.3 167.7 430.7C167.9 429.2 167.9 427 167.7 425.7C167.5 424.5 167.3 425.7 167.3 428.5Z" fill="#2D2D39"/>
<path d="M451.4 430.2L448.5 433.5L451.8 430.6C453.5 428.9 455 427.5 455 427.3C455 426.5 454.2 427.2 451.4 430.2Z" fill="#2D2D39"/>
<path d="M180.4 428.7C182.6 429.1 183 429.4 181.9 430.1C181.1 430.6 181 431 181.6 431C182.2 431 183.2 430.4 183.8 429.7C184.7 428.7 184.1 428.4 181.2 428.3C178.2 428.3 178.1 428.3 180.4 428.7Z" fill="#2D2D39"/>
<path d="M85 444.5C90.2 449.7 94.7 454 95 454C95.2 454 91.2 449.7 86 444.5C80.8 439.3 76.3 435 76 435C75.8 435 79.8 439.3 85 444.5Z" fill="#2D2D39"/>
<path d="M438 444.7L428.5 454.5L438.3 445C447.3 436.2 448.5 435 447.7 435C447.6 435 443.2 439.4 438 444.7Z" fill="#2D2D39"/>
<path d="M109 441.5C110.9 443.4 112.6 445 112.9 445C113.2 445 111.9 443.4 110 441.5C108.1 439.6 106.4 438 106.1 438C105.8 438 107.1 439.6 109 441.5Z" fill="#2D2D39"/>
<path d="M160.6 438.9C160.3 439.4 161.2 439.7 162.6 439.7C164.5 439.7 164.8 439.5 163.9 438.9C162.1 437.8 161.3 437.8 160.6 438.9Z" fill="#2D2D39"/>
<path d="M242 441.4C242 443.3 242.3 445.1 242.8 445.4C243.2 445.6 243.4 444.1 243.2 441.9C242.7 437.1 242 436.8 242 441.4Z" fill="#2D2D39"/>
<path d="M413.9 441.7L410.5 445.5L414.3 442.1C416.3 440.2 418 438.5 418 438.3C418 437.5 417.2 438.3 413.9 441.7Z" fill="#2D2D39"/>
<path d="M277.3 444.5C277.3 447.2 277.5 448.3 277.7 446.7C277.9 445.2 277.9 443 277.7 441.7C277.5 440.5 277.3 441.7 277.3 444.5Z" fill="#2D2D39"/>
<path d="M97 455.3C97 455.5 98.5 456.9 100.3 458.6L103.5 461.5L100.6 458.2C97.8 455.2 97 454.5 97 455.3Z" fill="#2D2D39"/>
<path d="M423.4 458.2L420.5 461.5L423.8 458.6C425.5 456.9 427 455.5 427 455.3C427 454.5 426.2 455.2 423.4 458.2Z" fill="#2D2D39"/>
<path d="M247.8 498.7C249.6 498.9 252.3 498.9 253.8 498.7C255.3 498.5 253.8 498.3 250.5 498.3C247.2 498.3 246 498.5 247.8 498.7Z" fill="#2D2D39"/>
<path d="M272.3 498.7C273.8 498.9 276.2 498.9 277.8 498.7C279.3 498.5 278 498.3 275 498.3C272 498.3 270.7 498.5 272.3 498.7Z" fill="#2D2D39"/>
<path d="M247.8 517.7C249.5 517.9 252.5 517.9 254.3 517.7C256 517.5 254.6 517.3 251 517.3C247.4 517.3 246 517.5 247.8 517.7Z" fill="#2D2D39"/>
<path d="M271.3 517.7C272.8 517.9 275.2 517.9 276.8 517.7C278.3 517.5 277 517.3 274 517.3C271 517.3 269.7 517.5 271.3 517.7Z" fill="#2D2D39"/>
</g>
<defs>
<filter id="filter0_d_10_677" x="8.7785" y="18.4931" width="506.421" height="507.937" filterUnits="userSpaceOnUse" color-interpolation-filters="sRGB">
<feFlood flood-opacity="0" result="BackgroundImageFix"/>
<feColorMatrix in="SourceAlpha" type="matrix" values="0 0 0 0 0 0 0 0 0 0 0 0 0 0 0 0 0 0 127 0" result="hardAlpha"/>
<feOffset dy="5"/>
<feGaussianBlur stdDeviation="2"/>
<feColorMatrix type="matrix" values="0 0 0 0 0 0 0 0 0 0 0 0 0 0 0 0 0 0 0.5 0"/>
<feBlend mode="normal" in2="BackgroundImageFix" result="effect1_dropShadow_10_677"/>
<feBlend mode="normal" in="SourceGraphic" in2="effect1_dropShadow_10_677" result="shape"/>
</filter>
<filter id="filter1_d_10_677" x="8.29999" y="18.2999" width="507.55" height="508.55" filterUnits="userSpaceOnUse" color-interpolation-filters="sRGB">
<feFlood flood-opacity="0" result="BackgroundImageFix"/>
<feColorMatrix in="SourceAlpha" type="matrix" values="0 0 0 0 0 0 0 0 0 0 0 0 0 0 0 0 0 0 127 0" result="hardAlpha"/>
<feOffset dy="5"/>
<feGaussianBlur stdDeviation="2"/>
<feColorMatrix type="matrix" values="0 0 0 0 0 0 0 0 0 0 0 0 0 0 0 0 0 0 0.5 0"/>
<feBlend mode="normal" in2="BackgroundImageFix" result="effect1_dropShadow_10_677"/>
<feBlend mode="normal" in="SourceGraphic" in2="effect1_dropShadow_10_677" result="shape"/>
</filter>
</defs>
</svg>
