<svg width="147" height="225" viewBox="0 0 147 225" fill="none" xmlns="http://www.w3.org/2000/svg">
<g clip-path="url(#clip0_7_61)" filter="url(#filter0_d_7_61)">
<path d="M104.164 204.374H40.9638C40.5049 204.374 40.0622 204.204 39.7219 203.896C39.3816 203.588 39.1681 203.165 39.1228 202.708L25.6281 67.3021C25.6021 67.0449 25.6304 66.7852 25.7112 66.5396C25.7919 66.2941 25.9233 66.0682 26.0968 65.8766C26.2703 65.685 26.4821 65.532 26.7185 65.4273C26.9548 65.3227 27.2105 65.2689 27.469 65.2693H117.662C117.92 65.2689 118.176 65.3227 118.412 65.4273C118.649 65.532 118.86 65.685 119.034 65.8766C119.207 66.0682 119.339 66.2941 119.42 66.5396C119.5 66.7852 119.529 67.0449 119.503 67.3021L106.001 202.718C105.954 203.172 105.74 203.593 105.4 203.899C105.061 204.204 104.62 204.374 104.164 204.374V204.374Z" fill="#D9C7F0"/>
<path d="M49.6057 84.9276C48.9255 84.9287 48.2534 84.7797 47.6374 84.4914C47.0213 84.203 46.4764 83.7823 46.0416 83.2592C45.6067 82.7362 45.2926 82.1236 45.1216 81.4652C44.9506 80.8069 44.9269 80.1189 45.0522 79.4503L52.9493 37.5382C53.1226 36.6156 53.4949 35.7419 54.0403 34.9779C54.5857 34.214 55.2912 33.5781 56.1076 33.1147L99.2556 8.54186C99.7837 8.22507 100.37 8.01698 100.979 7.92983C101.589 7.84269 102.21 7.87823 102.805 8.03438C103.401 8.19053 103.96 8.46414 104.448 8.83913C104.936 9.21412 105.345 9.68294 105.65 10.218C105.954 10.7531 106.149 11.3438 106.222 11.9552C106.296 12.5666 106.246 13.1865 106.076 13.7784C105.907 14.3704 105.621 14.9225 105.235 15.4023C104.849 15.882 104.371 16.2799 103.829 16.5724L61.7962 40.511L54.1365 81.1676C53.9361 82.2233 53.3742 83.1762 52.5473 83.8624C51.7204 84.5486 50.6803 84.9252 49.6057 84.9276V84.9276Z" fill="#D9C7F0"/>
<path d="M19.6142 54.8709H125.442V75.2057H19.6142V54.8709V54.8709Z" fill="white"/>
<path d="M114.39 118.542C102.355 114.396 86.9253 113.589 68.8119 122.576C52.6469 130.596 39.9067 129.689 31.6323 127.542L39.1131 202.705C39.1583 203.162 39.3719 203.585 39.7122 203.893C40.0525 204.201 40.4952 204.371 40.954 204.37H104.164C104.623 204.371 105.065 204.201 105.406 203.893C105.746 203.585 105.959 203.162 106.005 202.705L114.39 118.542Z" fill="white"/>
</g>
<defs>
<filter id="filter0_d_7_61" x="-4" y="0" width="155" height="233" filterUnits="userSpaceOnUse" color-interpolation-filters="sRGB">
<feFlood flood-opacity="0" result="BackgroundImageFix"/>
<feColorMatrix in="SourceAlpha" type="matrix" values="0 0 0 0 0 0 0 0 0 0 0 0 0 0 0 0 0 0 127 0" result="hardAlpha"/>
<feOffset dy="4"/>
<feGaussianBlur stdDeviation="2"/>
<feColorMatrix type="matrix" values="0 0 0 0 0 0 0 0 0 0 0 0 0 0 0 0 0 0 0.5 0"/>
<feBlend mode="normal" in2="BackgroundImageFix" result="effect1_dropShadow_7_61"/>
<feBlend mode="normal" in="SourceGraphic" in2="effect1_dropShadow_7_61" result="shape"/>
</filter>
<clipPath id="clip0_7_61">
<rect width="147" height="225" fill="white"/>
</clipPath>
</defs>
</svg>
